<?xml version="1.0" encoding="utf-8"?>
<!-- Generator: Adobe Illustrator 19.2.1, SVG Export Plug-In . SVG Version: 6.00 Build 0)  -->
<svg version="1.1" id="Layer_1" xmlns="http://www.w3.org/2000/svg" xmlns:xlink="http://www.w3.org/1999/xlink" x="0px" y="0px"
	 viewBox="0 0 32.4 19.4" style="enable-background:new 0 0 32.4 19.4;" xml:space="preserve">
<style type="text/css">
	.st0{fill:#989898;}
</style>
<g>
	<path class="st0" d="M32.4,9.7c0,5.3-4.3,9.7-9.7,9.7c-2.2,0-4.2-0.7-5.8-1.9l0,0c1.4-1.3,2.4-2.9,2.9-4.7h-0.9
		c-0.5,1.6-1.5,3-2.7,4.1c-1.2-1.1-2.2-2.5-2.7-4.1h-0.9c0.5,1.8,1.6,3.4,2.9,4.7l0,0c-1.6,1.2-3.6,1.9-5.8,1.9
		C4.4,19.4,0,15.1,0,9.7C0,4.4,4.3,0,9.7,0c2.2,0,4.2,0.7,5.8,1.9l0,0c-1.4,1.3-2.5,3.1-3,5h0.9c0.5-1.7,1.5-3.3,2.8-4.5
		c1.3,1.2,2.3,2.7,2.8,4.5h0.9c-0.5-2-1.6-3.7-3-5l0,0C18.5,0.7,20.5,0,22.7,0C28.1,0,32.4,4.3,32.4,9.7z M5.9,7.4H4.4l-1,2.9V7.4H2
		l-0.8,4.7h0.9l0.6-3.6l0.1,3.6h0.7l1.3-3.6l-0.6,3.6h1L5.9,7.4z M7.7,10.3c-0.1,0-0.2,0-0.2,0c-0.6,0-0.8,0.2-0.8,0.6
		c0,0.2,0.1,0.4,0.4,0.4C7.4,11.3,7.7,10.9,7.7,10.3z M8.8,10c0.1-0.3,0.1-0.6,0.1-0.8c0-0.7-0.5-1.1-1.3-1.1
		c-0.4,0-0.7,0.1-1.2,0.2L6.3,9.1C6.5,9,6.9,8.9,7.4,8.9S8,9,8,9.2c0,0.1,0,0.1,0,0.2c-0.1,0-0.3,0-0.4,0c-1.1,0-1.7,0.5-1.7,1.5
		c0,0.6,0.4,1,0.9,1s0.8-0.1,1-0.5v0.4c0,0,0.7,0,0.8,0C8.5,11.7,8.7,10.6,8.8,10z M21.5,7.2c-1.3,0-2.2,1.2-2.2,2.8
		c0,1.2,0.7,2,1.7,2c0.3,0,0.5,0,0.9-0.1l0.2-1.1C21.8,11,21.5,11,21.3,11c-0.6,0-0.9-0.4-0.9-1.1c0-1,0.5-1.7,1.3-1.7
		c0.3,0,0.5,0.1,0.9,0.3l0.2-1C22.4,7.4,21.9,7.2,21.5,7.2z M24.3,10.3c-0.1,0-0.2,0-0.2,0c-0.6,0-0.8,0.2-0.8,0.6
		c0,0.2,0.1,0.4,0.4,0.4C24,11.3,24.3,10.9,24.3,10.3z M25.3,10c0.1-0.3,0.1-0.6,0.1-0.8c0-0.7-0.5-1.1-1.3-1.1
		c-0.4,0-0.7,0.1-1.2,0.2l-0.1,0.8C23,9,23.4,8.9,23.9,8.9s0.6,0.1,0.6,0.3c0,0.1,0,0.1,0,0.2c-0.1,0-0.3,0-0.4,0
		c-1.1,0-1.7,0.5-1.7,1.5c0,0.6,0.4,1,0.9,1s0.8-0.1,1-0.5v0.4c0,0,0.7,0,0.8,0C25.1,11.7,25.3,10.6,25.3,10z M13.3,11.1
		c-0.1,0-0.2,0-0.3,0c-0.2,0-0.3-0.1-0.3-0.3c0-0.1,0.2-1,0.3-1.7h0.5l0.1-0.9h-0.5l0.1-0.6h-1c0,0-0.4,2.2-0.4,2.6
		c-0.1,0.4-0.1,0.8-0.1,1c0,0.5,0.3,0.8,0.8,0.8c0.2,0,0.4,0,0.7-0.1L13.3,11.1z M16.6,11c-0.4,0.2-0.7,0.2-1,0.2
		c-0.6,0-0.9-0.2-0.9-0.8h2c0.1-0.4,0.1-0.7,0.1-0.9c0-0.8-0.5-1.4-1.3-1.4c-1,0-1.7,1-1.7,2.2c0,1.1,0.6,1.7,1.7,1.7
		c0.3,0,0.7,0,1-0.2L16.6,11z M15.8,9.7c0-0.1,0.1-0.7-0.5-0.7c-0.3,0-0.5,0.2-0.6,0.7H15.8z M9.2,9.4c0,0.5,0.2,0.8,0.8,1.1
		c0.4,0.2,0.5,0.2,0.5,0.4c0,0.2-0.2,0.3-0.6,0.3c-0.3,0-0.6,0-0.9-0.1c0,0-0.1,0.8-0.1,0.9c0.2,0,0.4,0.1,1,0.1
		c1.1,0,1.5-0.4,1.5-1.3c0-0.5-0.2-0.8-0.7-1.1c-0.4-0.2-0.5-0.2-0.5-0.4c0-0.2,0.2-0.3,0.5-0.3c0.2,0,0.5,0,0.7,0.1l0.1-0.9
		c-0.3,0-0.6-0.1-0.9-0.1C9.6,8.1,9.2,8.7,9.2,9.4z M31.4,7.4h-1l-0.2,1.3c-0.3-0.4-0.6-0.5-1-0.5c-0.9,0-1.6,1.1-1.6,2.3
		c0,0.9,0.5,1.6,1.2,1.6c0.4,0,0.6-0.1,0.9-0.4v0.4h0.9L31.4,7.4z M28.7,10.4c0-0.7,0.3-1.3,0.8-1.3c0.3,0,0.5,0.3,0.5,0.7
		c0,0.8-0.3,1.3-0.8,1.3C28.8,11.1,28.7,10.9,28.7,10.4z M26.1,8.2c-0.1,1.2-0.3,2.4-0.5,3.5V12h1c0.4-2.3,0.4-2.8,1-2.7
		c0.1-0.5,0.3-0.9,0.4-1.1c-0.4-0.1-0.7,0.1-1,0.6c0-0.2,0.1-0.4,0.1-0.6H26.1z M17.4,8.2c-0.1,1.2-0.3,2.4-0.5,3.5V12h1
		c0.4-2.3,0.4-2.8,1-2.7c0.1-0.5,0.3-0.9,0.4-1.1c-0.4-0.1-0.6,0.1-1,0.6c0-0.2,0.1-0.4,0.1-0.6H17.4z M31.4,12.2
		c0.2,0,0.3-0.1,0.3-0.3c0-0.2-0.1-0.3-0.3-0.3s-0.3,0.1-0.3,0.3C31.1,12,31.3,12.2,31.4,12.2z M31.2,11.9c0-0.1,0.1-0.2,0.2-0.2
		c0.1,0,0.2,0.1,0.2,0.2c0,0.1-0.1,0.2-0.2,0.2S31.2,12,31.2,11.9z M31.4,11.9L31.4,11.9l0.1,0.1h0.1l-0.1-0.1c0,0,0,0,0-0.1v-0.1
		c0,0,0,0-0.1,0h-0.1V12h0.1V11.9z M31.4,11.8L31.4,11.8C31.4,11.8,31.5,11.8,31.4,11.8C31.5,11.8,31.5,11.8,31.4,11.8
		C31.5,11.8,31.5,11.8,31.4,11.8C31.5,11.9,31.4,11.9,31.4,11.8L31.4,11.8L31.4,11.8z M31.1,15.1c0-0.2,0.1-0.3,0.3-0.3
		s0.3,0.1,0.3,0.3c0,0.2-0.1,0.3-0.3,0.3C31.3,15.4,31.1,15.2,31.1,15.1z M31.4,15.3c0.1,0,0.2-0.1,0.2-0.2s-0.1-0.2-0.2-0.2
		s-0.2,0.1-0.2,0.2C31.2,15.2,31.3,15.3,31.4,15.3z M31.4,15.1L31.4,15.1l0.1,0.1h0.1l-0.1-0.1c0,0,0,0,0-0.1v-0.1c0,0,0,0-0.1,0
		h-0.1v0.3L31.4,15.1L31.4,15.1z M31.4,15L31.4,15C31.4,15,31.5,15,31.4,15C31.5,15,31.5,15,31.4,15C31.5,15,31.5,15,31.4,15
		C31.5,15,31.4,15,31.4,15L31.4,15L31.4,15z"/>
</g>
</svg>