<?xml version="1.0" encoding="utf-8"?>
<!-- Generator: Adobe Illustrator 19.2.1, SVG Export Plug-In . SVG Version: 6.00 Build 0)  -->
<svg version="1.1" id="Layer_1" xmlns="http://www.w3.org/2000/svg" xmlns:xlink="http://www.w3.org/1999/xlink" x="0px" y="0px"
	 viewBox="0 0 48 14.7" style="enable-background:new 0 0 48 14.7;" xml:space="preserve">
<style type="text/css">
	.st0{fill:#989898;}
</style>
<g>
	<polygon class="st0" points="13.8,14.3 18.1,0.3 21.8,0.3 17.6,14.3 	"/>
	<path class="st0" d="M12.1,0.3L8.7,6.2C7.8,7.8,7.3,8.5,7.1,9.5H7c0.1-1.2-0.1-2.8-0.1-3.6L6.5,0.3H0.1L0,0.7
		c1.6,0,2.6,0.8,2.9,2.5l1.2,11.1H8l7.9-14L12.1,0.3L12.1,0.3z"/>
	<path class="st0" d="M41.5,14.3l-0.1-2.1h-4.7l-1,2.1h-4.1l7.4-14h5l1.3,14H41.5L41.5,14.3z M41.1,6c0-1-0.1-2.4,0-3.3H41
		c-0.2,0.7-1.2,2.8-1.7,3.8l-1.4,3.1h3.3L41.1,6L41.1,6z"/>
	<path class="st0" d="M25.8,14.7c-2.7,0-4.4-0.8-5.7-1.6l1.8-2.8c1.1,0.6,2,1.4,4.1,1.4c0.7,0,1.3-0.2,1.7-0.8
		c0.5-0.9-0.1-1.4-1.6-2.2l-0.7-0.5c-2.2-1.5-3.1-2.9-2.1-5.4C24,1.2,25.7,0,28.6,0c2,0,3.8,0.9,4.9,1.7l-2.1,2.4
		c-1.1-0.9-1.9-1.3-2.9-1.3c-0.8,0-1.4,0.3-1.6,0.7c-0.4,0.8,0.1,1.3,1.3,2l0.9,0.6c2.7,1.7,3.3,3.4,2.6,5.1
		C30.4,14,28.2,14.7,25.8,14.7L25.8,14.7z"/>
	<path class="st0" d="M46.4,2.5h-0.2V0.9h0.6c0.4,0,0.6,0.1,0.6,0.4S47.2,1.7,47,1.7l0.4,0.7h-0.3l-0.4-0.6h-0.2v0.7H46.4z
		 M46.7,1.6c0.2,0,0.4,0,0.4-0.2s-0.2-0.2-0.3-0.2h-0.3v0.4L46.7,1.6L46.7,1.6z M46.7,3c-0.8,0-1.3-0.6-1.3-1.4s0.6-1.4,1.3-1.4
		S48,0.7,48,1.6C48,2.5,47.4,3,46.7,3L46.7,3z M46.7,0.5c-0.6,0-1.1,0.5-1.1,1.1s0.4,1.1,1.1,1.1c0.6,0,1-0.5,1-1.1
		S47.3,0.5,46.7,0.5L46.7,0.5z"/>
</g>
</svg>